<svg width="48" height="48" viewBox="0 0 48 48" fill="none" xmlns="http://www.w3.org/2000/svg">
<path d="M24 36.75C23.5837 36.75 23.25 37.0875 23.25 37.5V39C23.25 39.4125 23.5837 39.75 24 39.75C24.4162 39.75 24.75 39.4125 24.75 39V37.5C24.75 37.0875 24.4162 36.75 24 36.75ZM24 11.25C24.4162 11.25 24.75 10.9125 24.75 10.5V9C24.75 8.5875 24.4162 8.25 24 8.25C23.5837 8.25 23.25 8.5875 23.25 9V10.5C23.25 10.9125 23.5837 11.25 24 11.25ZM39 23.25H37.5C37.0837 23.25 36.75 23.5875 36.75 24C36.75 24.4125 37.0837 24.75 37.5 24.75H39C39.4162 24.75 39.75 24.4125 39.75 24C39.75 23.5875 39.4162 23.25 39 23.25ZM10.5 24.75C10.9163 24.75 11.25 24.4125 11.25 24C11.25 23.5875 10.9163 23.25 10.5 23.25H9C8.58375 23.25 8.25 23.5875 8.25 24C8.25 24.4125 8.58375 24.75 9 24.75H10.5ZM13.9237 33.015L12.8625 34.0762C12.57 34.3687 12.57 34.845 12.8625 35.1375C13.0088 35.2837 13.2 35.3587 13.3912 35.3587C13.5862 35.3587 13.7775 35.2837 13.9237 35.1375L14.985 34.0762C15.2775 33.7837 15.2775 33.3112 14.985 33.015C14.6925 32.7225 14.2163 32.7225 13.9237 33.015ZM33.5475 15.2025C33.7387 15.2025 33.93 15.1313 34.0762 14.985L35.1375 13.9237C35.43 13.6313 35.43 13.155 35.1375 12.8625C34.845 12.57 34.3687 12.57 34.0762 12.8625L33.015 13.9237C32.7225 14.2163 32.7225 14.6925 33.015 14.985C33.1612 15.1313 33.3525 15.2025 33.5475 15.2025ZM34.0762 33.015C33.7837 32.7225 33.3075 32.7225 33.015 33.015C32.7225 33.3075 32.7225 33.7837 33.015 34.0762L34.0762 35.1375C34.2225 35.2837 34.4137 35.355 34.6087 35.355C34.8 35.355 34.9913 35.2837 35.1375 35.1375C35.43 34.845 35.43 34.3687 35.1375 34.0762L34.0762 33.015ZM13.9237 14.985C14.07 15.1313 14.2613 15.2025 14.4525 15.2025C14.6475 15.2025 14.8387 15.1313 14.985 14.985C15.2775 14.6887 15.2775 14.2163 14.985 13.9237L13.9237 12.8625C13.6313 12.57 13.155 12.57 12.8625 12.8625C12.57 13.155 12.57 13.6313 12.8625 13.9237L13.9237 14.985ZM28.2187 36.8475C28.11 36.4463 27.7012 36.2062 27.3 36.315C26.8987 36.4237 26.6625 36.8325 26.7712 37.2337L27.1575 38.685C27.2475 39.0187 27.5512 39.24 27.8812 39.24C27.945 39.24 28.0125 39.2325 28.0762 39.2137C28.4775 39.105 28.7137 38.6962 28.6087 38.295L28.2187 36.8475ZM19.7812 11.1525C19.8712 11.49 20.175 11.7112 20.505 11.7112C20.5687 11.7112 20.6362 11.7037 20.7 11.685C21.1012 11.5763 21.3375 11.1675 21.2287 10.7662L20.8425 9.315C20.7337 8.9175 20.325 8.6775 19.9237 8.78625C19.5225 8.895 19.2862 9.30375 19.3912 9.705L19.7812 11.1525ZM36.315 20.7C36.405 21.0337 36.7087 21.255 37.0387 21.255C37.1025 21.255 37.17 21.2475 37.2337 21.2287L38.685 20.8425C39.0825 20.7337 39.3225 20.325 39.2137 19.9237C39.1087 19.5225 38.6962 19.2862 38.295 19.3912L36.8475 19.7812C36.4463 19.89 36.21 20.2987 36.315 20.7ZM11.685 27.3C11.5763 26.8987 11.1675 26.6625 10.7662 26.7712L9.315 27.1575C8.9175 27.2663 8.6775 27.675 8.78625 28.0762C8.87625 28.4137 9.18 28.635 9.51 28.635C9.57375 28.635 9.64125 28.6237 9.705 28.6087L11.1525 28.2187C11.5538 28.11 11.79 27.7012 11.685 27.3ZM17.625 35.04C17.265 34.8337 16.8075 34.9575 16.6012 35.3175L15.8512 36.615C15.645 36.975 15.765 37.4325 16.125 37.6387C16.2413 37.7062 16.3725 37.74 16.5 37.74C16.7587 37.74 17.01 37.605 17.1487 37.365L17.8987 36.0675C18.1087 35.7075 17.985 35.25 17.625 35.04ZM30.375 12.96C30.4912 13.0275 30.6225 13.0575 30.75 13.0575C31.0087 13.0575 31.26 12.9263 31.3987 12.6825L32.1487 11.385C32.355 11.025 32.235 10.5675 31.875 10.3612C31.515 10.155 31.0575 10.275 30.8512 10.635L30.1012 11.9325C29.8912 12.2925 30.015 12.75 30.375 12.96ZM37.365 30.8512L36.0675 30.1012C35.7075 29.8912 35.25 30.015 35.0437 30.375C34.8337 30.735 34.9575 31.1925 35.3175 31.3987L36.615 32.1487C36.735 32.2162 36.8625 32.25 36.99 32.25C37.2487 32.25 37.5 32.115 37.6387 31.875C37.8487 31.515 37.725 31.0575 37.365 30.8512ZM10.635 17.1487L11.9325 17.8987C12.0525 17.9663 12.18 18 12.3075 18C12.5662 18 12.8175 17.865 12.9562 17.625C13.1662 17.265 13.0425 16.8075 12.6825 16.6012L11.385 15.8512C11.025 15.6412 10.5675 15.765 10.3612 16.125C10.1512 16.485 10.275 16.9425 10.635 17.1487ZM31.3987 35.3175C31.1925 34.9575 30.7312 34.8337 30.375 35.04C30.015 35.25 29.8912 35.7075 30.1012 36.0675L30.8512 37.365C30.99 37.605 31.2412 37.74 31.5 37.74C31.6275 37.74 31.7587 37.7062 31.875 37.6387C32.235 37.4325 32.3587 36.975 32.1487 36.615L31.3987 35.3175ZM16.6012 12.6825C16.74 12.9263 16.9913 13.0575 17.25 13.0575C17.3775 13.0575 17.5087 13.0275 17.625 12.96C17.985 12.75 18.1087 12.2925 17.8987 11.9325L17.1487 10.635C16.9425 10.275 16.4813 10.1512 16.125 10.3612C15.765 10.5675 15.6412 11.025 15.8512 11.385L16.6012 12.6825ZM35.0437 17.625C35.1825 17.865 35.4337 18 35.6925 18C35.82 18 35.9475 17.9663 36.0675 17.8987L37.365 17.1487C37.725 16.9425 37.8487 16.485 37.6387 16.125C37.4325 15.765 36.9712 15.6412 36.615 15.8512L35.3175 16.6012C34.9575 16.8075 34.8337 17.265 35.0437 17.625ZM12.9562 30.375C12.75 30.015 12.2888 29.8912 11.9325 30.1012L10.635 30.8512C10.275 31.0575 10.1512 31.515 10.3612 31.875C10.5 32.115 10.7513 32.25 11.01 32.25C11.1375 32.25 11.2687 32.2162 11.385 32.1487L12.6825 31.3987C13.0425 31.1925 13.1662 30.735 12.9562 30.375ZM20.7 36.315C20.3025 36.21 19.89 36.4463 19.7812 36.8475L19.3912 38.295C19.2862 38.6962 19.5225 39.105 19.9237 39.2137C19.9875 39.2325 20.055 39.24 20.1187 39.24C20.4487 39.24 20.7525 39.0187 20.8425 38.685L21.2287 37.2337C21.3375 36.8325 21.1012 36.4237 20.7 36.315ZM27.3 11.685C27.3637 11.7 27.4312 11.7112 27.495 11.7112C27.825 11.7112 28.1287 11.49 28.2187 11.1525L28.6087 9.705C28.7137 9.30375 28.4775 8.895 28.0762 8.78625C27.6787 8.6775 27.2663 8.9175 27.1575 9.315L26.7712 10.7662C26.6625 11.1675 26.8987 11.5763 27.3 11.685ZM38.6812 27.1575L37.2337 26.7675C36.8362 26.6625 36.4237 26.8987 36.315 27.3C36.2062 27.6975 36.4462 28.11 36.8437 28.2187L38.295 28.605C38.3587 28.6237 38.4262 28.6312 38.49 28.6312C38.82 28.6312 39.1237 28.41 39.2137 28.0762C39.3187 27.675 39.0825 27.2663 38.6812 27.1575ZM9.31875 20.8425L10.7662 21.2325C10.83 21.2475 10.8975 21.2587 10.9612 21.2587C11.2912 21.2587 11.595 21.0375 11.685 20.7C11.7937 20.3025 11.5537 19.89 11.1562 19.7812L9.705 19.395C9.3075 19.2862 8.895 19.5225 8.78625 19.9237C8.68125 20.325 8.9175 20.7337 9.31875 20.8425Z" fill="#068466"/>
<path d="M46.0687 25.4175C46.7325 24.5962 46.7325 23.4037 46.0687 22.5825L43.2862 19.1475C43.1512 18.9825 43.095 18.7687 43.125 18.5587L43.8187 14.1937C43.9837 13.1512 43.3874 12.12 42.4012 11.7412L38.2762 10.155C38.0774 10.08 37.92 9.9225 37.845 9.72375L36.2587 5.59875C35.8837 4.6125 34.8525 4.01625 33.8062 4.18125L29.4412 4.875C29.2312 4.90875 29.0174 4.84875 28.8525 4.7175L25.4175 1.935C24.5962 1.27125 23.4037 1.2675 22.5825 1.935L19.1475 4.7175C18.9862 4.84875 18.7762 4.90875 18.5587 4.875L14.1937 4.18125C13.1475 4.01625 12.1162 4.6125 11.7412 5.59875L10.1587 9.72375C10.08 9.9225 9.92245 10.08 9.7237 10.155L5.5987 11.7412C4.61245 12.1162 4.0162 13.1475 4.1812 14.1937L4.87495 18.5587C4.9087 18.7687 4.8487 18.9825 4.71745 19.1475L1.93495 22.5862C1.26745 23.4037 1.26745 24.5962 1.93495 25.4175L4.71745 28.8525C4.8487 29.0175 4.9087 29.2312 4.87495 29.4412L4.1812 33.8062C4.0162 34.8525 4.61245 35.8837 5.5987 36.2587L9.7237 37.845C9.92245 37.92 10.08 38.0775 10.1587 38.2762L11.7412 42.4012C12.1162 43.3875 13.1475 43.98 14.1937 43.8187L18.5587 43.1287C18.7687 43.095 18.9862 43.1512 19.1475 43.2862L22.5862 46.0687C22.995 46.3987 23.4975 46.5637 24 46.5637C24.5025 46.5637 25.005 46.3987 25.4175 46.065L28.8525 43.2825C29.0174 43.1512 29.2274 43.095 29.4412 43.125L33.8062 43.8187C34.8562 43.98 35.8837 43.3875 36.2625 42.4012L37.845 38.2762C37.92 38.0775 38.0774 37.92 38.2762 37.845L42.405 36.2587C43.3874 35.8837 43.9837 34.8525 43.8187 33.8062L43.1287 29.4412C43.095 29.2312 43.1512 29.0175 43.2862 28.8525L46.0687 25.4175ZM42.12 27.9075C41.7187 28.4025 41.5462 29.0475 41.6437 29.6737L42.3375 34.0425C42.3937 34.3875 42.195 34.7325 41.865 34.86L37.7362 36.4425C37.1437 36.6712 36.6712 37.1437 36.4425 37.7362L34.86 41.865C34.7325 42.1912 34.3949 42.3937 34.0425 42.3375L29.6775 41.6437C29.0475 41.5462 28.4025 41.715 27.9075 42.1162L24.4725 44.8987C24.1987 45.12 23.8012 45.12 23.5275 44.8987L20.0925 42.1162C19.6912 41.79 19.1887 41.6137 18.675 41.6137C18.5587 41.6137 18.4425 41.625 18.3225 41.6437L13.9574 42.3337C13.6125 42.3937 13.2675 42.1912 13.14 41.865L11.5575 37.7362C11.3287 37.1437 10.8562 36.6712 10.26 36.4425L6.13495 34.86C5.80495 34.7325 5.6062 34.3912 5.66245 34.0425L6.3562 29.6737C6.4537 29.0475 6.2812 28.4025 5.87995 27.9075L3.09745 24.4725C2.8762 24.1987 2.8762 23.8012 3.09745 23.5275L5.87995 20.0925C6.2812 19.5975 6.4537 18.9525 6.3562 18.3225L5.66245 13.9575C5.6062 13.6087 5.80495 13.2675 6.13495 13.14L10.2637 11.5575C10.8562 11.3287 11.3287 10.8562 11.5575 10.2637L13.14 6.135C13.2675 5.805 13.6087 5.60625 13.9574 5.6625L18.3225 6.35625C18.9525 6.45 19.5974 6.28125 20.0925 5.88L23.5275 3.10125C23.8012 2.88 24.1987 2.88 24.4725 3.10125L27.9075 5.88C28.4025 6.28125 29.0512 6.45375 29.6737 6.35625L34.0425 5.6625C34.3837 5.61 34.7325 5.805 34.86 6.135L36.4425 10.26C36.6712 10.8562 37.1437 11.3287 37.7362 11.5575L41.865 13.14C42.195 13.2675 42.3937 13.6087 42.3375 13.9575L41.6437 18.3262C41.5462 18.9525 41.7187 19.5975 42.12 20.0925L44.9025 23.5275C45.1237 23.8012 45.1237 24.1987 44.9025 24.4725L42.12 27.9075Z" fill="#068466"/>
<path d="M33.5287 18.2212C33.2362 17.925 32.7637 17.925 32.4712 18.2212L21.75 28.9387L16.2787 23.4712C15.9862 23.175 15.5137 23.175 15.2212 23.4712C14.925 23.7637 14.925 24.2362 15.2212 24.5287L21.2212 30.5287C21.3675 30.675 21.5587 30.75 21.75 30.75C21.9412 30.75 22.1325 30.675 22.2787 30.5287L33.5287 19.2787C33.825 18.9862 33.825 18.5137 33.5287 18.2212Z" fill="#068466"/>
</svg>
