<svg width="135" height="32" viewBox="0 0 135 32" fill="none" xmlns="http://www.w3.org/2000/svg">
<path d="M12.9258 2.44541H0V25.0131H12.9258C22.6725 25.0131 26.2009 19.6332 26.2009 13.6594C26.2009 7.68559 23.1266 2.44541 12.9258 2.44541ZM12.821 20.9956H4.68122V6.46288H12.821C19.5284 6.46288 21.4498 9.81659 21.4498 13.6594C21.4498 17.5022 19.5284 20.9956 12.821 20.9956Z" fill="#272929"/>
<path d="M36.7827 0H31.5076V3.98253H36.7827V0ZM44.3635 0H39.0884V3.98253H44.3635V0ZM37.9356 25.4323C44.4683 25.4323 48.905 22.2882 48.905 16.3843C48.905 10.5153 44.4683 7.26638 37.9356 7.26638C31.3679 7.26638 26.8613 10.5153 26.8613 16.3843C26.8613 22.2882 31.3679 25.4323 37.9356 25.4323ZM37.9356 21.9389C34.3024 21.9389 31.4378 19.9825 31.4378 16.3843C31.4378 12.786 34.3373 10.7598 37.9356 10.7598C41.5338 10.7598 44.2937 12.821 44.2937 16.3843C44.2937 19.9825 41.464 21.9389 37.9356 21.9389Z" fill="#272929"/>
<path d="M62.3933 7.26638C57.747 7.26638 55.2317 9.50218 54.2885 12.786V12.262L54.0439 7.68559H49.747V32H54.2885V19.4934C55.2666 22.6376 57.7819 25.4323 62.3933 25.4323C67.5287 25.4323 71.6859 21.869 71.6859 16.3843C71.6859 10.9694 67.5985 7.26638 62.3933 7.26638ZM60.926 21.9039C56.9784 21.9039 54.4632 19.8777 54.2885 16.7686V16C54.4981 12.6812 57.2928 10.7948 60.926 10.7948C64.8038 10.7948 67.0396 13.0306 67.0396 16.3843C67.0396 19.738 64.6291 21.9039 60.926 21.9039Z" fill="#272929"/>
<path d="M85.1594 7.26638C80.5131 7.26638 77.9978 9.50218 77.0546 12.786V12.262L76.81 7.68559H72.5131V32H77.0546V19.4934C78.0327 22.6376 80.548 25.4323 85.1594 25.4323C90.2948 25.4323 94.452 21.869 94.452 16.3843C94.452 10.9694 90.3646 7.26638 85.1594 7.26638ZM83.6921 21.9039C79.7445 21.9039 77.2293 19.8777 77.0546 16.7686V16C77.2642 12.6812 80.0589 10.7948 83.6921 10.7948C87.5699 10.7948 89.8057 13.0306 89.8057 16.3843C89.8057 19.738 87.3952 21.9039 83.6921 21.9039Z" fill="#272929"/>
<path d="M95.7333 0.698689V25.0131H100.275V0.698689H95.7333Z" fill="#272929"/>
<path d="M118.248 19.2489C117.689 20.8908 115.628 21.9738 112.728 21.9738C108.816 21.9738 106.475 19.9127 106.161 17.048H122.72C122.999 10.4454 119.506 7.26638 112.728 7.26638C105.986 7.26638 101.584 10.69 101.584 16.3843C101.584 22.1485 106.196 25.4323 112.833 25.4323C118.737 25.4323 122.021 22.8472 122.615 19.2489H118.248ZM112.484 10.7249C115.907 10.7249 117.934 12.1921 118.213 14.5677H106.37C106.964 12.3668 109.13 10.7249 112.484 10.7249Z" fill="#272929"/>
<path d="M128.09 12.8908V7.68559H123.549V25.0131H128.09V15.5459C128.684 14.3231 130.536 11.4236 134.763 11.4236V7.26638C130.641 7.26638 128.754 10.7598 128.09 12.8908Z" fill="#272929"/>
</svg>
