<svg width="114" height="32" viewBox="0 0 114 32" fill="none" xmlns="http://www.w3.org/2000/svg">
<path d="M22.9467 3.16533H26.4667L28.3067 9.30933L30.1627 3.16533H33.6667V14.3333H31.0907V7.85333L29.2667 14.3333H27.4267L25.5227 7.85333V14.3333H22.9467V3.16533Z" fill="#272929"/>
<path d="M35.5879 3.16533V14.3333H38.1639V3.16533H35.5879Z" fill="#272929"/>
<path d="M41.2885 14.3333H46.2645L47.8005 12.7973V8.46133H43.9285V10.6693H45.2085V12.1253H42.3605V5.37333H45.2085V6.97333H47.8005V4.68533L46.2805 3.16533H41.2725L39.7685 4.66933V12.8133L41.2885 14.3333Z" fill="#272929"/>
<path d="M48.0417 14.3333H50.7457L51.3857 12.1413H55.0817L55.7217 14.3333H58.4417L54.9377 3.16533H51.5297L48.0417 14.3333ZM52.0577 9.93333L53.2417 6.01333L54.4097 9.93333H52.0577Z" fill="#272929"/>
<path d="M61.572 12.1253V3.16533H58.996V14.3333H65.732V12.1253H61.572Z" fill="#272929"/>
<path d="M67.9779 14.3333H72.9539L74.4899 12.7973V4.70133L72.9539 3.16533H67.9619L66.4579 4.66933V12.8133L67.9779 14.3333ZM69.0339 12.1253V5.37333H71.8979V12.1253H69.0339Z" fill="#272929"/>
<path d="M77.291 14.3333H82.267L83.803 12.7973V4.70133L82.267 3.16533H77.275L75.771 4.66933V12.8133L77.291 14.3333ZM78.347 12.1253V5.37333H81.211V12.1253H78.347Z" fill="#272929"/>
<path d="M22.9467 30.3333H29.4587L30.9787 28.7973V25.7253L29.9067 24.7493L30.9787 23.7733V20.6853L29.4587 19.1653H22.9467V30.3333ZM25.5387 23.6453V21.3733H28.3867V23.6453H25.5387ZM25.5387 28.1253V25.8533H28.3867V28.1253H25.5387Z" fill="#272929"/>
<path d="M32.7442 30.3333H35.3202V25.7733H36.0562L38.1202 30.3333H41.0962L39.0322 25.7733L40.5682 24.3333V20.6853L39.0322 19.1653H32.7442V30.3333ZM35.3202 23.6453V21.3733H37.9762V23.6453H35.3202Z" fill="#272929"/>
<path d="M42.3698 30.3333H49.1058V28.1253H44.9618V25.8533H48.4498V23.6453H44.9618V21.3733H49.0738V19.1653H42.3698V30.3333Z" fill="#272929"/>
<path d="M49.7523 19.1653H52.4083L53.8963 26.3333L55.3363 19.1653H57.9763L59.4483 26.2693L60.8883 19.1653H63.5603L60.7443 30.3333H58.0563L56.6643 23.8533L55.2243 30.3333H52.5523L49.7523 19.1653Z" fill="#272929"/>
<path d="M64.4335 19.1653V30.3333H67.0095V19.1653H64.4335Z" fill="#272929"/>
<path d="M68.9342 30.3333V19.1653H72.5182L74.7582 25.5813V19.1653H77.3182V30.3333H73.7342L71.4942 23.8533V30.3333H68.9342Z" fill="#272929"/>
<path d="M80.4317 30.3333H85.4077L86.9437 28.7973V24.4613H83.0717V26.6693H84.3517V28.1253H81.5037V21.3733H84.3517V22.9733H86.9437V20.6853L85.4237 19.1653H80.4157L78.9117 20.6693V28.8133L80.4317 30.3333Z" fill="#272929"/>
<path d="M93.9017 30.3333H98.8937L100.414 28.8133V26.5413H97.8217V28.1413H94.9737V21.3733H97.8217V22.9733H100.414V20.7013L98.8777 19.1653H93.9017L92.3817 20.6853V28.8133L93.9017 30.3333Z" fill="#272929"/>
<path d="M103.059 30.3333H108.035L109.571 28.7973V20.7013L108.035 19.1653H103.043L101.539 20.6693V28.8133L103.059 30.3333ZM104.115 28.1253V21.3733H106.979V28.1253H104.115Z" fill="#272929"/>
<path d="M110.852 30.3333H113.204V28.1733H110.852V30.3333Z" fill="#272929"/>
<path d="M6.83333 0C6.40309 0 6.07407 0.330159 6.07407 0.761905V12.2411C5.21358 11.4284 4.04938 10.9206 2.78395 10.9206H0.759259C0.329012 10.9206 0 11.2508 0 11.6825V13.7143C0 16.381 2.15123 18.5397 4.80864 18.5397H6.07407V23.1111H4.80864C2.98642 23.1111 1.51852 21.6381 1.51852 19.8095V19.0476C1.51852 18.6159 1.18951 18.2857 0.759259 18.2857C0.329012 18.2857 0 18.6159 0 19.0476V19.8095C0 22.4762 2.15123 24.6349 4.80864 24.6349H6.07407V29.2064H4.80864C2.98642 29.2064 1.51852 27.7333 1.51852 25.9048V25.3968C1.51852 24.9651 1.18951 24.6349 0.759259 24.6349C0.329012 24.6349 0 24.9651 0 25.3968V25.9048C0 28.5714 2.15123 30.7302 4.80864 30.7302H6.07407V31.2381C6.07407 31.6698 6.40309 32 6.83333 32C7.26358 32 7.59259 31.6698 7.59259 31.2381V30.7302H8.85803C11.5154 30.7302 13.6667 28.5714 13.6667 25.9048V25.1429C13.6667 24.7111 13.3377 24.381 12.9074 24.381C12.4772 24.381 12.1481 24.7111 12.1481 25.1429V25.9048C12.1481 27.7333 10.6802 29.2064 8.85803 29.2064H7.59259V24.6349H8.85803C11.5154 24.6349 13.6667 22.4762 13.6667 19.8095V19.0476C13.6667 18.6159 13.3377 18.2857 12.9074 18.2857C12.4772 18.2857 12.1481 18.6159 12.1481 19.0476V19.8095C12.1481 21.6381 10.6802 23.1111 8.85803 23.1111H7.59259V18.5397H8.85803C11.5154 18.5397 13.6667 16.381 13.6667 13.7143V11.6825C13.6667 11.2508 13.3377 10.9206 12.9074 10.9206H10.8827C9.61728 10.9206 8.45309 11.4284 7.59259 12.2411V0.761905C7.59259 0.330159 7.26358 0 6.83333 0ZM3.7963 2.53968C3.36605 2.53968 3.03704 2.86984 3.03704 3.30159V8.38095C3.03704 8.8127 3.36605 9.14286 3.7963 9.14286C4.22654 9.14286 4.55556 8.8127 4.55556 8.38095V3.30159C4.55556 2.86984 4.22654 2.53968 3.7963 2.53968ZM9.87037 2.53968C9.44012 2.53968 9.11111 2.86984 9.11111 3.30159V8.38095C9.11111 8.8127 9.44012 9.14286 9.87037 9.14286C10.3006 9.14286 10.6296 8.8127 10.6296 8.38095V3.30159C10.6296 2.86984 10.3006 2.53968 9.87037 2.53968ZM1.51852 12.4444H2.78395C4.60617 12.4444 6.07407 13.9175 6.07407 15.746V17.0159H4.80864C2.98642 17.0159 1.51852 15.5429 1.51852 13.7143V12.4444ZM10.8827 12.4444H12.1481V13.7143C12.1481 15.5429 10.6802 17.0159 8.85803 17.0159H7.59259V15.746C7.59259 13.9175 9.06049 12.4444 10.8827 12.4444Z" fill="#272929"/>
</svg>
