<svg width="107" height="32" viewBox="0 0 107 32" fill="none" xmlns="http://www.w3.org/2000/svg">
<g clip-path="url(#clip0)">
<path d="M16.0077 0C7.1714 0 0.0078125 7.1634 0.0078125 15.9997C0.0078125 24.837 7.1714 32 16.0077 32C24.8444 32 32.0076 24.837 32.0076 15.9997C32.0076 7.16397 24.8448 0.000763654 16.0075 0.000763654L16.0077 0ZM23.3452 23.0762C23.0578 23.5475 22.4437 23.6952 21.9739 23.4081C18.2167 21.1117 13.4876 20.593 7.91824 21.8653C7.38156 21.9883 6.84659 21.6518 6.72432 21.1153C6.60146 20.5787 6.93639 20.0437 7.47441 19.9214C13.5692 18.528 18.7972 19.1278 23.0144 21.7048C23.4844 21.9933 23.6335 22.6066 23.345 23.0766L23.3452 23.0762ZM25.3035 18.7202C24.9417 19.3074 24.174 19.4915 23.5876 19.131C19.2878 16.4879 12.7312 15.7223 7.64427 17.2665C6.98453 17.4657 6.28774 17.0939 6.08751 16.4354C5.88881 15.7756 6.26081 15.0802 6.91939 14.8795C12.7301 13.1164 19.9537 13.9705 24.8925 17.0055C25.4791 17.3666 25.6644 18.1346 25.3033 18.7204L25.3035 18.7202ZM25.4717 14.1837C20.3142 11.1208 11.8071 10.8392 6.88364 12.3335C6.09305 12.5732 5.25697 12.1269 5.01738 11.3363C4.77779 10.5453 5.22373 9.70984 6.0149 9.46949C11.6666 7.75378 21.062 8.08526 26.999 11.6097C27.7101 12.0318 27.9434 12.9502 27.5219 13.6604C27.1016 14.3715 26.1807 14.6059 25.4718 14.1837H25.4717ZM43.5383 14.7706C40.7757 14.1119 40.2839 13.6495 40.2839 12.678C40.2839 11.7601 41.1481 11.1424 42.4332 11.1424C43.6789 11.1424 44.9141 11.6115 46.2091 12.5771C46.2482 12.6063 46.2973 12.618 46.3457 12.6103C46.394 12.6031 46.4368 12.5765 46.4651 12.5366L47.814 10.6351C47.8694 10.5568 47.8543 10.4489 47.7796 10.3891C46.2383 9.15233 44.5027 8.55106 42.4741 8.55106C39.4912 8.55106 37.4077 10.3411 37.4077 12.9023C37.4077 15.6487 39.205 16.6212 42.3109 17.3719C44.9544 17.9808 45.4005 18.491 45.4005 19.4029C45.4005 20.4134 44.4983 21.0416 43.0465 21.0416C41.4339 21.0416 40.1187 20.4984 38.6473 19.2242C38.6108 19.1927 38.5608 19.1784 38.5145 19.1811C38.4658 19.1851 38.4213 19.2076 38.3904 19.2449L36.8779 21.0449C36.8145 21.1196 36.8225 21.2311 36.8959 21.2957C38.6078 22.824 40.7133 23.6312 42.9854 23.6312C46.1995 23.6312 48.2765 21.875 48.2765 19.1568C48.2823 16.8622 46.9086 15.5916 43.544 14.7731L43.5383 14.7706ZM55.5483 12.0461C54.1551 12.0461 53.0123 12.5948 52.07 13.7192V12.4536C52.07 12.3537 51.989 12.2723 51.8893 12.2723H49.4156C49.3157 12.2723 49.2349 12.3537 49.2349 12.4536V26.516C49.2349 26.6159 49.3157 26.6973 49.4156 26.6973H51.8893C51.989 26.6973 52.07 26.616 52.07 26.516V22.0771C53.0125 23.1348 54.1554 23.6517 55.5483 23.6517C58.1369 23.6517 60.7575 21.6589 60.7575 17.8496C60.7613 14.0393 58.14 12.0459 55.5511 12.0459L55.5483 12.0461ZM57.8811 17.8496C57.8811 19.7894 56.6862 21.1431 54.9753 21.1431C53.2838 21.1431 52.0079 19.7279 52.0079 17.8496C52.0079 15.9715 53.2838 14.5561 54.9753 14.5561C56.6585 14.5559 57.8813 15.9407 57.8813 17.8494L57.8811 17.8496ZM67.4742 12.0461C64.1404 12.0461 61.5286 14.6132 61.5286 17.891C61.5286 21.1331 64.1224 23.6733 67.4333 23.6733C70.779 23.6733 73.3988 21.1148 73.3988 17.8496C73.3988 14.5956 70.7965 12.0465 67.474 12.0465L67.4742 12.0461ZM67.4742 21.1623C65.701 21.1623 64.3641 19.7376 64.3641 17.8486C64.3641 15.9516 65.6547 14.575 67.4333 14.575C69.218 14.575 70.5638 15.9997 70.5638 17.8901C70.5638 19.7867 69.2646 21.1623 67.4744 21.1623H67.4742ZM80.5178 12.2723H77.7958V9.48936C77.7958 9.38963 77.7152 9.30824 77.6153 9.30824H75.142C75.0419 9.30824 74.9607 9.38963 74.9607 9.48936V12.2723H73.7713C73.6718 12.2723 73.5912 12.3537 73.5912 12.4537V14.5796C73.5912 14.6793 73.6718 14.7609 73.7713 14.7609H74.9607V20.2617C74.9607 22.4847 76.0671 23.6117 78.2492 23.6117C79.1365 23.6117 79.8726 23.4285 80.5664 23.0351C80.6227 23.0036 80.6577 22.9428 80.6577 22.8783V20.8538C80.6577 20.7913 80.6252 20.7323 80.5717 20.6996C80.5178 20.6658 80.4508 20.6641 80.3955 20.6914C79.919 20.9312 79.4584 21.0418 78.9435 21.0418C78.1498 21.0418 77.7958 20.6815 77.7958 19.8739V14.7619H80.5178C80.6177 14.7619 80.6982 14.6805 80.6982 14.5805V12.4548C80.702 12.3549 80.6218 12.2735 80.5205 12.2735L80.5178 12.2723ZM90.002 12.2832V11.9414C90.002 10.9359 90.3876 10.4875 91.2523 10.4875C91.768 10.4875 92.1822 10.5899 92.6461 10.7446C92.7033 10.7626 92.7628 10.7536 92.8093 10.7194C92.857 10.6852 92.884 10.6304 92.884 10.5723V8.48782C92.884 8.40814 92.8328 8.33765 92.756 8.31414C92.2659 8.16835 91.6389 8.01876 90.7 8.01876C88.4153 8.01876 87.2076 9.30536 87.2076 11.7381V12.2616H86.0192C85.9195 12.2616 85.8377 12.343 85.8377 12.4428V14.5796C85.8377 14.6793 85.9195 14.7609 86.0192 14.7609H87.2076V23.2456C87.2076 23.3456 87.2882 23.427 87.388 23.427H89.8616C89.9615 23.427 90.0429 23.3456 90.0429 23.2456V14.7615H92.3525L95.8903 23.2441C95.4887 24.1354 95.0938 24.3127 94.5546 24.3127C94.1188 24.3127 93.6599 24.1826 93.1906 23.9258C93.1465 23.9016 93.0941 23.8976 93.0466 23.9123C92.9994 23.9289 92.9597 23.964 92.9396 24.0099L92.1012 25.8492C92.0613 25.9362 92.0955 26.0382 92.1792 26.0833C93.0544 26.5573 93.8445 26.7596 94.821 26.7596C96.6475 26.7596 97.6571 25.9088 98.547 23.6199L102.838 12.5308C102.86 12.475 102.853 12.412 102.819 12.3625C102.785 12.3134 102.73 12.2838 102.67 12.2838H100.095C100.018 12.2838 99.9492 12.3329 99.924 12.4053L97.286 19.9403L94.3966 12.4003C94.3703 12.3302 94.3026 12.2838 94.2277 12.2838H90.0015L90.002 12.2832ZM84.5033 12.2723H82.0297C81.9298 12.2723 81.8484 12.3537 81.8484 12.4537V23.2457C81.8484 23.3456 81.9298 23.427 82.0297 23.427H84.5033C84.6031 23.427 84.6847 23.3456 84.6847 23.2457V12.4544C84.6847 12.4306 84.68 12.4069 84.6709 12.3849C84.6618 12.3629 84.6485 12.3429 84.6316 12.326C84.6147 12.3092 84.5947 12.2958 84.5726 12.2867C84.5506 12.2777 84.527 12.273 84.5031 12.2731L84.5033 12.2723ZM83.2806 7.35848C82.3006 7.35848 81.5054 8.15175 81.5054 9.1317C81.5054 10.1122 82.3008 10.9065 83.2806 10.9065C84.2601 10.9065 85.0545 10.1122 85.0545 9.1317C85.0545 8.15194 84.2597 7.35848 83.2815 7.35848H83.2806ZM104.951 15.7422C103.972 15.7422 103.21 14.956 103.21 14.0012C103.21 13.0465 103.981 12.2513 104.96 12.2513C105.939 12.2513 106.7 13.0373 106.7 13.9913C106.7 14.946 105.929 15.7422 104.95 15.7422H104.951ZM104.96 12.4244C104.068 12.4244 103.394 13.1333 103.394 14.0012C103.394 14.8688 104.064 15.5681 104.951 15.5681C105.843 15.5681 106.518 14.8599 106.518 13.9913C106.518 13.1237 105.847 12.4244 104.961 12.4244H104.96ZM105.346 14.1703L105.838 14.8597H105.423L104.98 14.2273H104.599V14.8597H104.251V13.0324H105.066C105.491 13.0324 105.77 13.2496 105.77 13.6153C105.772 13.9149 105.598 14.0979 105.348 14.1703H105.346V14.1703ZM105.052 13.3459H104.599V13.9239H105.052C105.278 13.9239 105.413 13.8132 105.413 13.6346C105.413 13.4466 105.277 13.3459 105.052 13.3459H105.052V13.3459Z" fill="#353640"/>
</g>
<defs>
<clipPath id="clip0">
<rect width="106.693" height="32" fill="white" transform="translate(0.0078125)"/>
</clipPath>
</defs>
</svg>
